<svg viewBox="0 0 128 128" fill="none" xmlns="http://www.w3.org/2000/svg">
    <path fill-rule="evenodd" clip-rule="evenodd"
        d="M68.1359 9.5C66.2114 6.16667 61.4002 6.16666 59.4757 9.5L19.6773 78.4328C17.7528 81.7661 20.1585 85.9328 24.0075 85.9328H30.6969C33.3608 70.0543 47.1704 57.9552 63.8058 57.9552C80.4413 57.9552 94.2508 70.0543 96.9147 85.9328H103.604C107.453 85.9328 109.859 81.7661 107.934 78.4328L68.1359 9.5Z"
        fill="black" />
    <path
        d="M92.3058 92.9186C92.3058 108.106 79.5459 120.419 63.8058 120.419C48.0657 120.419 35.3058 108.106 35.3058 92.9186C35.3058 77.7308 48.0657 65.4186 63.8058 65.4186C79.5459 65.4186 92.3058 77.7308 92.3058 92.9186Z"
        fill="black" />
</svg>